<mxfile host="app.diagrams.net" modified="2023-12-03T19:12:16.080Z" agent="Mozilla/5.0 (Windows NT 10.0; Win64; x64) AppleWebKit/537.36 (KHTML, like Gecko) Chrome/119.0.0.0 Safari/537.36 Edg/119.0.0.0" etag="jnBAWNyWlS7kagTPV7Xg" version="22.1.5" type="device" pages="2">
  <diagram name="Страница — 1" id="o3sYmgAIau1fM3dsohi6">
    <mxGraphModel dx="1911" dy="988" grid="1" gridSize="10" guides="1" tooltips="1" connect="1" arrows="1" fold="1" page="1" pageScale="1" pageWidth="3300" pageHeight="2339" math="0" shadow="0">
      <root>
        <mxCell id="0" />
        <mxCell id="1" parent="0" />
        <mxCell id="4jrtj_xi7a7eZWBBwE5j-2" style="edgeStyle=orthogonalEdgeStyle;rounded=0;orthogonalLoop=1;jettySize=auto;html=1;entryX=0;entryY=0.5;entryDx=0;entryDy=0;" edge="1" parent="1" target="MUi1yYkGbGkddvzHHs3n-1">
          <mxGeometry relative="1" as="geometry">
            <mxPoint x="130" y="800" as="sourcePoint" />
            <Array as="points">
              <mxPoint x="160" y="800" />
              <mxPoint x="160" y="800" />
            </Array>
          </mxGeometry>
        </mxCell>
        <mxCell id="4jrtj_xi7a7eZWBBwE5j-3" style="edgeStyle=orthogonalEdgeStyle;rounded=0;orthogonalLoop=1;jettySize=auto;html=1;exitX=0.75;exitY=1;exitDx=0;exitDy=0;entryX=0.75;entryY=1;entryDx=0;entryDy=0;" edge="1" parent="1" target="MUi1yYkGbGkddvzHHs3n-1">
          <mxGeometry relative="1" as="geometry">
            <mxPoint x="280" y="870" as="sourcePoint" />
            <Array as="points">
              <mxPoint x="405" y="870" />
            </Array>
          </mxGeometry>
        </mxCell>
        <mxCell id="4jrtj_xi7a7eZWBBwE5j-6" style="edgeStyle=orthogonalEdgeStyle;rounded=0;orthogonalLoop=1;jettySize=auto;html=1;exitX=1;exitY=0.5;exitDx=0;exitDy=0;entryX=0;entryY=0.25;entryDx=0;entryDy=0;" edge="1" parent="1" source="MUi1yYkGbGkddvzHHs3n-1" target="4jrtj_xi7a7eZWBBwE5j-5">
          <mxGeometry relative="1" as="geometry">
            <Array as="points">
              <mxPoint x="590" y="800" />
              <mxPoint x="590" y="870" />
              <mxPoint x="440" y="870" />
              <mxPoint x="440" y="905" />
            </Array>
          </mxGeometry>
        </mxCell>
        <mxCell id="MUi1yYkGbGkddvzHHs3n-1" value="&lt;span style=&quot;font-size: 14px;&quot;&gt;&lt;br&gt;&lt;br&gt;Формирование задачи&lt;/span&gt;" style="html=1;align=center;verticalAlign=top;rounded=1;absoluteArcSize=1;arcSize=10;dashed=0;whiteSpace=wrap;" parent="1" vertex="1">
          <mxGeometry x="270" y="750" width="180" height="100" as="geometry" />
        </mxCell>
        <mxCell id="tuSf0BVARLKbpVUZxoqx-10" value="&lt;font style=&quot;font-size: 11px;&quot;&gt;Идентификатор&lt;br style=&quot;font-size: 11px;&quot;&gt;администратора&lt;br style=&quot;font-size: 11px;&quot;&gt;&lt;/font&gt;" style="text;html=1;strokeColor=none;fillColor=none;align=center;verticalAlign=middle;whiteSpace=wrap;rounded=0;fontSize=11;" parent="1" vertex="1">
          <mxGeometry x="170" y="785" width="60" height="30" as="geometry" />
        </mxCell>
        <mxCell id="4jrtj_xi7a7eZWBBwE5j-4" value="&lt;font style=&quot;font-size: 11px;&quot;&gt;Администратор&lt;br style=&quot;font-size: 11px;&quot;&gt;&lt;/font&gt;" style="text;html=1;strokeColor=none;fillColor=none;align=center;verticalAlign=middle;whiteSpace=wrap;rounded=0;fontSize=11;" vertex="1" parent="1">
          <mxGeometry x="310" y="860" width="60" height="10" as="geometry" />
        </mxCell>
        <mxCell id="4jrtj_xi7a7eZWBBwE5j-9" style="edgeStyle=orthogonalEdgeStyle;rounded=0;orthogonalLoop=1;jettySize=auto;html=1;exitX=0.75;exitY=1;exitDx=0;exitDy=0;entryX=0.75;entryY=1;entryDx=0;entryDy=0;" edge="1" parent="1" target="4jrtj_xi7a7eZWBBwE5j-5">
          <mxGeometry relative="1" as="geometry">
            <mxPoint x="499.9999999999998" y="1000" as="sourcePoint" />
            <Array as="points">
              <mxPoint x="595" y="1000" />
            </Array>
          </mxGeometry>
        </mxCell>
        <mxCell id="4jrtj_xi7a7eZWBBwE5j-12" style="edgeStyle=orthogonalEdgeStyle;rounded=0;orthogonalLoop=1;jettySize=auto;html=1;exitX=1;exitY=0.5;exitDx=0;exitDy=0;entryX=0;entryY=0.5;entryDx=0;entryDy=0;" edge="1" parent="1" source="4jrtj_xi7a7eZWBBwE5j-5" target="4jrtj_xi7a7eZWBBwE5j-11">
          <mxGeometry relative="1" as="geometry">
            <Array as="points">
              <mxPoint x="760" y="930" />
              <mxPoint x="760" y="990" />
              <mxPoint x="640" y="990" />
              <mxPoint x="640" y="1050" />
            </Array>
          </mxGeometry>
        </mxCell>
        <mxCell id="4jrtj_xi7a7eZWBBwE5j-5" value="&lt;span style=&quot;font-size: 14px;&quot;&gt;&lt;br&gt;&lt;br&gt;Сохранение задачи в базе данных&lt;/span&gt;" style="html=1;align=center;verticalAlign=top;rounded=1;absoluteArcSize=1;arcSize=10;dashed=0;whiteSpace=wrap;" vertex="1" parent="1">
          <mxGeometry x="460" y="880" width="180" height="100" as="geometry" />
        </mxCell>
        <mxCell id="4jrtj_xi7a7eZWBBwE5j-7" value="&lt;font style=&quot;font-size: 11px;&quot;&gt;Информация о задаче&lt;br style=&quot;font-size: 11px;&quot;&gt;&lt;/font&gt;" style="text;html=1;strokeColor=none;fillColor=none;align=center;verticalAlign=middle;whiteSpace=wrap;rounded=0;fontSize=11;" vertex="1" parent="1">
          <mxGeometry x="460" y="785" width="120" height="10" as="geometry" />
        </mxCell>
        <mxCell id="4jrtj_xi7a7eZWBBwE5j-10" value="&lt;font style=&quot;font-size: 11px;&quot;&gt;Система&lt;br style=&quot;font-size: 11px;&quot;&gt;&lt;/font&gt;" style="text;html=1;strokeColor=none;fillColor=none;align=center;verticalAlign=middle;whiteSpace=wrap;rounded=0;fontSize=11;" vertex="1" parent="1">
          <mxGeometry x="520" y="990" width="60" height="10" as="geometry" />
        </mxCell>
        <mxCell id="4jrtj_xi7a7eZWBBwE5j-15" style="edgeStyle=orthogonalEdgeStyle;rounded=0;orthogonalLoop=1;jettySize=auto;html=1;entryX=0.75;entryY=1;entryDx=0;entryDy=0;" edge="1" parent="1" target="4jrtj_xi7a7eZWBBwE5j-11">
          <mxGeometry relative="1" as="geometry">
            <mxPoint x="681" y="1120" as="sourcePoint" />
            <Array as="points">
              <mxPoint x="795" y="1120" />
            </Array>
          </mxGeometry>
        </mxCell>
        <mxCell id="4jrtj_xi7a7eZWBBwE5j-16" style="edgeStyle=orthogonalEdgeStyle;rounded=0;orthogonalLoop=1;jettySize=auto;html=1;exitX=1;exitY=0.25;exitDx=0;exitDy=0;" edge="1" parent="1" source="4jrtj_xi7a7eZWBBwE5j-11">
          <mxGeometry relative="1" as="geometry">
            <mxPoint x="940" y="1025.3333333333333" as="targetPoint" />
          </mxGeometry>
        </mxCell>
        <mxCell id="4jrtj_xi7a7eZWBBwE5j-17" style="edgeStyle=orthogonalEdgeStyle;rounded=0;orthogonalLoop=1;jettySize=auto;html=1;exitX=1;exitY=0.75;exitDx=0;exitDy=0;" edge="1" parent="1" source="4jrtj_xi7a7eZWBBwE5j-11">
          <mxGeometry relative="1" as="geometry">
            <mxPoint x="940" y="1075.3333333333333" as="targetPoint" />
          </mxGeometry>
        </mxCell>
        <mxCell id="4jrtj_xi7a7eZWBBwE5j-11" value="&lt;span style=&quot;font-size: 14px;&quot;&gt;&lt;br&gt;&lt;br&gt;Предоставление задач персоналу&lt;/span&gt;" style="html=1;align=center;verticalAlign=top;rounded=1;absoluteArcSize=1;arcSize=10;dashed=0;whiteSpace=wrap;" vertex="1" parent="1">
          <mxGeometry x="660" y="1000" width="180" height="100" as="geometry" />
        </mxCell>
        <mxCell id="4jrtj_xi7a7eZWBBwE5j-13" value="&lt;font style=&quot;font-size: 11px;&quot;&gt;Обновленный список задач&lt;br style=&quot;font-size: 11px;&quot;&gt;&lt;/font&gt;" style="text;html=1;strokeColor=none;fillColor=none;align=center;verticalAlign=middle;whiteSpace=wrap;rounded=0;fontSize=11;" vertex="1" parent="1">
          <mxGeometry x="640" y="925" width="120" height="10" as="geometry" />
        </mxCell>
        <mxCell id="4jrtj_xi7a7eZWBBwE5j-18" value="&lt;font style=&quot;font-size: 11px;&quot;&gt;Система&lt;br style=&quot;font-size: 11px;&quot;&gt;&lt;/font&gt;" style="text;html=1;strokeColor=none;fillColor=none;align=center;verticalAlign=middle;whiteSpace=wrap;rounded=0;fontSize=11;" vertex="1" parent="1">
          <mxGeometry x="710" y="1110" width="60" height="10" as="geometry" />
        </mxCell>
        <mxCell id="4jrtj_xi7a7eZWBBwE5j-19" value="&lt;font style=&quot;font-size: 11px;&quot;&gt;Задачи &lt;br&gt;горничных&lt;br style=&quot;font-size: 11px;&quot;&gt;&lt;/font&gt;" style="text;html=1;strokeColor=none;fillColor=none;align=center;verticalAlign=middle;whiteSpace=wrap;rounded=0;fontSize=11;" vertex="1" parent="1">
          <mxGeometry x="830" y="1020" width="120" height="10" as="geometry" />
        </mxCell>
        <mxCell id="4jrtj_xi7a7eZWBBwE5j-20" value="&lt;font style=&quot;font-size: 11px;&quot;&gt;Задачи &lt;br&gt;поваров&lt;br style=&quot;font-size: 11px;&quot;&gt;&lt;/font&gt;" style="text;html=1;strokeColor=none;fillColor=none;align=center;verticalAlign=middle;whiteSpace=wrap;rounded=0;fontSize=11;" vertex="1" parent="1">
          <mxGeometry x="830" y="1070" width="120" height="10" as="geometry" />
        </mxCell>
      </root>
    </mxGraphModel>
  </diagram>
  <diagram id="30CSTh-y9SVbLgZfz-_A" name="Страница — 2">
    <mxGraphModel dx="5413" dy="2800" grid="1" gridSize="10" guides="1" tooltips="1" connect="1" arrows="1" fold="1" page="1" pageScale="1" pageWidth="3300" pageHeight="2339" math="0" shadow="0">
      <root>
        <mxCell id="0" />
        <mxCell id="1" parent="0" />
      </root>
    </mxGraphModel>
  </diagram>
</mxfile>
